<svg width="21" height="20" fill="none" xmlns="http://www.w3.org/2000/svg"><path d="M7.5 10a5 5 0 100-10 5 5 0 000 10zm0-8.333a3.333 3.333 0 110 6.666 3.333 3.333 0 010-6.666zm0 10a7.51 7.51 0 00-7.5 7.5.833.833 0 101.667 0 5.833 5.833 0 0111.666 0 .833.833 0 101.667 0 7.509 7.509 0 00-7.5-7.5zm10.834-5.104a1.756 1.756 0 00-1.667 1.833A1.756 1.756 0 0015 6.562a1.756 1.756 0 00-1.666 1.834c0 1.441 1.88 3.13 2.817 3.882a.827.827 0 001.033 0C18.12 11.528 20 9.838 20 8.396a1.756 1.756 0 00-1.666-1.834z" fill="#F7F7F7"/></svg>