<svg width="18" height="18" fill="none" xmlns="http://www.w3.org/2000/svg"><path d="M9 0a9 9 0 100 18A9 9 0 009 0zm0 16.875a7.875 7.875 0 110-15.75 7.875 7.875 0 010 15.75z" fill="#3D3D3D"/><path d="M6.188 6.188c.62 0 1.125.503 1.125 1.125h1.125a2.25 2.25 0 00-4.5 0h1.124c0-.622.504-1.125 1.125-1.125zm5.625-1.125a2.25 2.25 0 00-2.25 2.25h1.124a1.125 1.125 0 012.25 0h1.126a2.25 2.25 0 00-2.25-2.25zM9 12.938a3.375 3.375 0 01-3.375-3.376H4.5a4.5 4.5 0 109 0h-1.125A3.375 3.375 0 019 12.938z" fill="#3D3D3D"/></svg>