<svg width="18" height="18" fill="none" xmlns="http://www.w3.org/2000/svg"><path d="M9.355.227a.391.391 0 00-.71 0l-2.44 5.29L.36 5.98a.391.391 0 00-.24.671l4.163 4.03-.988 5.29a.391.391 0 00.583.41l5.32-3.131a.391.391 0 10-.397-.674l-4.58 2.694.87-4.653a.391.391 0 00-.113-.353L1.286 6.691l5.21-.412a.391.391 0 00.324-.226L9 1.326l2.18 4.727a.389.389 0 00.324.226l5.153.408-3.172 2.794a.391.391 0 10.518.587l3.864-3.405a.391.391 0 00-.228-.683l-5.845-.463L9.355.227z" fill="#3D3D3D"/><path fill-rule="evenodd" clip-rule="evenodd" d="M10.956 15.08a1.565 1.565 0 10.783 1.356v-3.354l3.913-1.204v2.419a1.565 1.565 0 10.783 1.356v-4.305a.391.391 0 00-.507-.374l-4.696 1.445a.391.391 0 00-.276.374v2.286zm-1.565 1.355a.783.783 0 111.565 0 .783.783 0 01-1.565 0zm6.26-.782a.783.783 0 10-1.564 0 .783.783 0 001.565 0z" fill="#3D3D3D"/></svg>