<svg width="18" height="14" fill="none" xmlns="http://www.w3.org/2000/svg"><path fill-rule="evenodd" clip-rule="evenodd" d="M13.999.178a.4.4 0 01.554-.11l1.58 1.053c.556.37.89.994.89 1.662v5.97h.578a.4.4 0 01.234.723l-2.01 1.46.768 2.365a.4.4 0 01-.615.446l-2.011-1.46-2.011 1.46a.4.4 0 01-.615-.446l.338-1.04h-1.216c-.516 0-.97-.34-1.115-.836-.102-.348-.595-.348-.696 0a1.161 1.161 0 01-1.115.836H6.32l.338 1.04a.4.4 0 01-.615.446l-2.01-1.46-2.012 1.46a.4.4 0 01-.614-.446l.768-2.364-2.01-1.461a.4.4 0 01.234-.723h.578v-5.97c0-.668.333-1.292.889-1.662L3.446.067a.4.4 0 11.444.665L2.309 1.786a1.198 1.198 0 00-.534.997v5.97h1.11l.768-2.364a.4.4 0 01.76 0l.768 2.364h2.486a.4.4 0 01.234.723l-2.01 1.46.17.526h1.476a.363.363 0 00.348-.261c.325-1.115 1.904-1.115 2.23 0a.362.362 0 00.348.26h1.476l.17-.524-2.01-1.461a.4.4 0 01.234-.723h2.486l.768-2.364a.4.4 0 01.76 0l.768 2.364h1.11v-5.97a1.2 1.2 0 00-.534-.997L14.11.732a.4.4 0 01-.111-.554zM4.033 7.805l-.478 1.47a.4.4 0 01-.38.277H1.63l1.25.909a.4.4 0 01.146.447l-.478 1.47 1.251-.909a.4.4 0 01.47 0l1.251.91-.478-1.471a.4.4 0 01.145-.447l1.251-.91H4.891a.4.4 0 01-.38-.275l-.478-1.47zm9.934 0l-.478 1.47a.4.4 0 01-.38.277h-1.546l1.25.909a.4.4 0 01.146.447l-.478 1.47 1.251-.909a.4.4 0 01.47 0l1.25.91-.477-1.471a.4.4 0 01.145-.447l1.251-.91h-1.546a.4.4 0 01-.38-.275l-.478-1.47z" fill="#3D3D3D"/></svg>