<svg width="18" height="18" fill="none" xmlns="http://www.w3.org/2000/svg"><path fill-rule="evenodd" clip-rule="evenodd" d="M2.983.05a.399.399 0 00-.591.349v3.003a1.594 1.594 0 10.797 1.381V1.075l1.002.555a.399.399 0 10.387-.697L2.983.05zm-.591 4.733a.797.797 0 10-1.595 0 .797.797 0 001.595 0zm1.52 5.824c1.077-1.077 2.808-1.138 3.866-.08 1.058 1.058.997 2.79-.08 3.866-1.076 1.077-2.807 1.138-3.866.08-1.058-1.058-.996-2.79.08-3.866zm3.303.484c-.722-.722-1.948-.712-2.74.08-.79.791-.8 2.017-.079 2.738.722.722 1.947.712 2.739-.08.79-.79.801-2.017.08-2.738z" fill="#3D3D3D"/><path fill-rule="evenodd" clip-rule="evenodd" d="M15.997 1.34a.399.399 0 00-.564 0l-1.098 1.098-.324-.324a.399.399 0 00-.564.564l.324.324-4.33 4.33a3.29 3.29 0 01-.2-1.603.972.972 0 00-.374-.885.785.785 0 00-.484-.162.75.75 0 00-.519.228 4.603 4.603 0 00-1.13 1.836.703.703 0 01-.628.484c-1.399.037-2.818.618-3.92 1.72-2.158 2.157-2.326 5.565-.282 7.61 2.045 2.044 5.452 1.875 7.61-.282 1.087-1.088 1.667-2.484 1.718-3.865a.702.702 0 01.49-.622 4.6 4.6 0 001.879-1.144.77.77 0 00.235-.54.809.809 0 00-.175-.502 1.03 1.03 0 00-.927-.382 3.289 3.289 0 01-1.602-.2l4.334-4.335.373.37a.399.399 0 10.562-.565l-.37-.369 1.093-1.094a.399.399 0 000-.563l-1.127-1.128zm-5.585 7.276l4.489-4.49-.566-.562-4.487 4.488a3.024 3.024 0 00.563.564zm5.053-5.053l.814-.814-.564-.564-.816.816.566.562zm-7.03 1.98a.175.175 0 00-.03-.046 3.802 3.802 0 00-.913 1.495 1.5 1.5 0 01-1.364 1.035c-1.195.032-2.42.528-3.378 1.486-1.89 1.89-1.974 4.791-.282 6.483 1.691 1.691 4.593 1.607 6.482-.282.946-.945 1.441-2.151 1.485-3.33a1.499 1.499 0 011.049-1.354 3.803 3.803 0 001.545-.94.237.237 0 00-.201-.076c-1.186.141-2.398-.215-3.28-1.098-.883-.883-1.24-2.095-1.099-3.28a.177.177 0 00-.014-.093z" fill="#3D3D3D"/></svg>