<svg width="18" height="18" fill="none" xmlns="http://www.w3.org/2000/svg"><path fill-rule="evenodd" clip-rule="evenodd" d="M7.61.995v2.613a1.691 1.691 0 10.846 1.465V.423a.423.423 0 00-.548-.404l-5.073 1.56a.423.423 0 00-.298.405v2.47a1.691 1.691 0 10.846 1.465V2.296L7.61.996zm-.846 3.233a.846.846 0 110 1.69.846.846 0 010-1.69zM.846 5.918a.846.846 0 111.69 0 .846.846 0 01-1.69 0z" fill="#3D3D3D"/><path d="M9.6 12.56a.423.423 0 00-.598-.598L7.734 13.23a.423.423 0 00.598.598L9.6 12.56z" fill="#3D3D3D"/><path fill-rule="evenodd" clip-rule="evenodd" d="M16.333 5.352a4.228 4.228 0 00-7.208 2.72.422.422 0 00-.144.107l-4.706 5.443a2.536 2.536 0 00.126 3.453l.182.182a2.537 2.537 0 003.489.094l5.316-4.776.008-.007a4.228 4.228 0 002.937-7.217zm-5.38.597a3.382 3.382 0 114.782 4.783 3.382 3.382 0 01-4.783-4.783zm-6.038 8.226l4.291-4.963a4.208 4.208 0 001.148 2.118c.553.553 1.221.92 1.927 1.103l-4.774 4.289c-.669.6-1.69.573-2.326-.063L5 16.477a1.691 1.691 0 01-.084-2.302z" fill="#3D3D3D"/></svg>