<svg width="18" height="18" fill="none" xmlns="http://www.w3.org/2000/svg"><path d="M.818 8.59a7.772 7.772 0 1115.545 0 .41.41 0 00.818 0 8.59 8.59 0 10-8.59 8.591.41.41 0 000-.818A7.773 7.773 0 01.818 8.591z" fill="#3D3D3D"/><path fill-rule="evenodd" clip-rule="evenodd" d="M8.59 5.727a2.864 2.864 0 100 5.727 2.864 2.864 0 000-5.727zM6.545 8.59a2.045 2.045 0 114.09 0 2.045 2.045 0 01-4.09 0z" fill="#3D3D3D"/><path d="M8.59 3.273a5.318 5.318 0 00-5.318 5.318.41.41 0 01-.818 0A6.136 6.136 0 018.59 2.455a.41.41 0 010 .818z" fill="#3D3D3D"/><path fill-rule="evenodd" clip-rule="evenodd" d="M15.692 9.932c-1.318-1.186-3.42-.25-3.42 1.523v2.551a.29.29 0 01-.419.26 1.108 1.108 0 00-1.486.495l-.183.365a1.227 1.227 0 00.417 1.57l1.03.686a3.681 3.681 0 002.042.618h.645a2.864 2.864 0 002.864-2.863v-3.34c0-.334-.142-.651-.39-.874l-1.1-.99zm-2.601 1.523c0-1.065 1.262-1.627 2.054-.915l1.1.99a.357.357 0 01.118.267v3.34c0 1.13-.915 2.045-2.045 2.045h-.645a2.864 2.864 0 01-1.589-.48l-1.029-.687a.41.41 0 01-.139-.523l.183-.365a.29.29 0 01.389-.13 1.108 1.108 0 001.603-.99v-2.552z" fill="#3D3D3D"/></svg>