<svg width="7" height="13" fill="none" xmlns="http://www.w3.org/2000/svg"><path d="M4.215 12.25H2.29a.583.583 0 01-.583-.58V7.348H.583A.583.583 0 010 6.768V4.916c0-.32.262-.58.583-.58h1.124v-.928c0-.92.29-1.702.839-2.262.55-.563 1.321-.86 2.228-.86l1.468.002c.321 0 .582.26.582.58v1.72c0 .32-.261.58-.583.58h-.988c-.302 0-.379.06-.395.079-.027.03-.06.117-.06.356v.732h1.369a.582.582 0 01.589.58l-.001 1.853c0 .32-.262.58-.583.58H4.799v4.322c0 .32-.262.58-.584.58zm-1.804-.701h1.683V7.034c0-.214.174-.387.39-.387H6.05v-1.61H4.484a.389.389 0 01-.39-.388V3.603c0-.274.029-.586.236-.82.252-.284.647-.316.923-.316h.867V.988L4.773.987c-1.456 0-2.362.927-2.362 2.42V4.65a.389.389 0 01-.389.388H.705v1.61h1.317c.215 0 .39.173.39.387v4.515zM6.241.989z" fill="#F7F7F7"/></svg>