<svg width="12" height="13" fill="none" xmlns="http://www.w3.org/2000/svg"><path d="M8.752.436H3.248A3.247 3.247 0 000 3.674v5.488a3.247 3.247 0 003.248 3.239h5.504A3.247 3.247 0 0012 9.162V3.674A3.247 3.247 0 008.752.436zm2.544 8.726A2.544 2.544 0 018.752 11.7H3.248A2.544 2.544 0 01.703 9.162V3.674a2.544 2.544 0 012.545-2.537h5.504a2.544 2.544 0 012.544 2.537v5.488z" fill="#F7F7F7"/><path d="M6 3.146a3.28 3.28 0 00-3.281 3.272 3.28 3.28 0 003.28 3.272 3.28 3.28 0 003.282-3.272A3.28 3.28 0 006 3.146zm0 5.842a2.577 2.577 0 01-2.578-2.57A2.577 2.577 0 016 3.848a2.577 2.577 0 012.578 2.57A2.577 2.577 0 016 8.988zm3.36-7.004a.97.97 0 00-.97.967.97.97 0 001.94 0 .97.97 0 00-.97-.967zm0 1.232a.266.266 0 01-.266-.265.266.266 0 01.532 0c0 .146-.12.265-.266.265z" fill="#F7F7F7"/></svg>