<svg width="12" height="10" fill="none" xmlns="http://www.w3.org/2000/svg"><path d="M11.9.368a.435.435 0 00-.485-.132L.408 4.21a.616.616 0 00-.139 1.089l1.574 1.073a.496.496 0 00.511.029l3.413-1.798-2.66 1.984a.498.498 0 00-.2.398v1.838a.515.515 0 00.802.43l1.196-.793 1.175.801a.62.62 0 00.876-.185l4.98-8.204A.435.435 0 0011.9.368zM6.404 8.631L5.186 7.8a.496.496 0 00-.554-.003l-1.02.676V7.088l4.696-3.504a.492.492 0 00.123-.662.493.493 0 00-.651-.174L2.136 5.72l-1.33-.908 10.136-3.66L6.403 8.63z" fill="#F7F7F7"/></svg>