<svg width="12" height="10" fill="none" xmlns="http://www.w3.org/2000/svg"><path d="M7.847 4.352L5.196 2.906a.484.484 0 00-.482.008.481.481 0 00-.239.418V6.2a.487.487 0 00.718.428l2.65-1.422a.485.485 0 00.004-.854zM5.178 5.84V3.696l1.982 1.08L5.178 5.84z" fill="#F7F7F7"/><path d="M11.912 2.496v-.005c-.011-.096-.112-.953-.53-1.389C10.9.59 10.352.527 10.09.498a3.118 3.118 0 01-.06-.007l-.02-.003C8.421.373 6.025.358 6.001.358h-.004c-.024 0-2.42.015-4.02.13l-.022.003L1.9.497c-.26.03-.802.093-1.286.624C.216 1.55.101 2.39.09 2.484l-.002.012C.085 2.536 0 3.491 0 4.448v.896C0 6.3.085 7.255.088 7.296v.006c.011.094.112.935.528 1.371.454.496 1.028.561 1.336.596.05.006.091.01.12.016l.028.004c.916.086 3.788.13 3.91.131h.007c.024 0 2.42-.016 4.006-.13l.02-.003.068-.008c.259-.027.797-.084 1.275-.608.398-.43.513-1.27.524-1.363l.002-.012c.003-.04.088-.995.088-1.952v-.896c0-.957-.085-1.911-.088-1.952zm-.615 2.848c0 .886-.078 1.8-.085 1.883-.03.23-.151.761-.345.971-.3.328-.606.36-.83.384a3.935 3.935 0 00-.075.009c-1.534.11-3.84.127-3.946.128-.12-.002-2.949-.045-3.837-.127a3.086 3.086 0 00-.147-.02c-.262-.03-.622-.07-.899-.374l-.006-.007c-.19-.198-.309-.694-.339-.961a24.433 24.433 0 01-.085-1.886v-.896c0-.885.078-1.797.085-1.883.036-.272.16-.77.345-.971.308-.338.633-.375.848-.4l.057-.007C3.595 1.076 5.917 1.059 6 1.059c.083 0 2.404.017 3.947.128l.062.007c.221.025.555.063.861.39l.003.002c.19.198.309.703.338.976.006.06.086.985.086 1.886v.896z" fill="#F7F7F7"/></svg>