<svg width="15" height="15" fill="none" xmlns="http://www.w3.org/2000/svg"><path d="M14.196 2.548a1.871 1.871 0 00-1.44-.673H2.651l-.026-.22A1.875 1.875 0 00.764 0H.625a.625.625 0 000 1.25h.139a.625.625 0 01.62.552l.86 7.312a3.125 3.125 0 003.104 2.761h6.527a.625.625 0 000-1.25H5.348a1.875 1.875 0 01-1.762-1.25h7.45a3.125 3.125 0 003.075-2.57l.49-2.722a1.872 1.872 0 00-.405-1.535zm-.821 1.313l-.491 2.721a1.875 1.875 0 01-1.848 1.543h-7.65l-.587-5h9.957a.625.625 0 01.619.736zM4.375 15a1.25 1.25 0 100-2.5 1.25 1.25 0 000 2.5zm6.25 0a1.25 1.25 0 100-2.5 1.25 1.25 0 000 2.5z" fill="#F7F7F7"/></svg>