<svg width="120" height="40" fill="none" xmlns="http://www.w3.org/2000/svg"><path d="M44.21 12.51h2.35v3.08a1.97 1.97 0 01-.39.22 3.12 3.12 0 01-.48.17 3.21 3.21 0 01-.53.1 3.61 3.61 0 01-.53.04c-.447 0-.857-.07-1.23-.21a2.619 2.619 0 01-.97-.66 3.152 3.152 0 01-.64-1.13c-.153-.46-.23-1-.23-1.62 0-.647.093-1.2.28-1.66.187-.46.43-.833.73-1.12.3-.293.637-.507 1.01-.64s.747-.2 1.12-.2c.4 0 .73.023.99.07.26.04.48.097.66.17l-.21.73c-.32-.153-.777-.23-1.37-.23-.28 0-.56.05-.84.15-.273.093-.52.253-.74.48-.22.227-.4.523-.54.89s-.21.82-.21 1.36c0 .493.057.92.17 1.28.113.36.27.66.47.9.207.233.453.41.74.53.287.113.6.17.94.17.427 0 .79-.083 1.09-.25v-1.95l-1.64-.2v-.47zm7.333 3.09c-.2.16-.453.287-.76.38-.3.093-.62.14-.96.14a2.5 2.5 0 01-.99-.18 1.825 1.825 0 01-.69-.53 2.346 2.346 0 01-.4-.83 4.12 4.12 0 01-.13-1.08c0-.853.19-1.503.57-1.95.38-.447.923-.67 1.63-.67.227 0 .453.027.68.08.227.047.43.14.61.28s.327.34.44.6c.113.253.17.59.17 1.01 0 .22-.02.463-.06.73h-3.21c0 .293.03.553.09.78.06.227.153.42.28.58.127.153.29.273.49.36.207.08.457.12.75.12.227 0 .453-.04.68-.12.227-.08.397-.173.51-.28l.3.58zm-1.72-4.02c-.393 0-.71.103-.95.31-.233.207-.373.56-.42 1.06h2.48c0-.507-.097-.86-.29-1.06-.193-.207-.467-.31-.82-.31zm2.488-.58h.78v-.99l.8-.23V11h1.36v.7h-1.36v2.77c0 .347.044.593.13.74.087.14.233.21.44.21.174 0 .32-.017.44-.05.12-.04.253-.09.4-.15l.18.61a3.04 3.04 0 01-.59.21c-.213.053-.443.08-.69.08-.407 0-.693-.113-.86-.34-.166-.233-.25-.62-.25-1.16V11.7h-.78V11zm6.885 0h.8v5h-.8v-5zm-.17-1.52a.55.55 0 01.55-.56.56.56 0 01.41.17c.113.107.17.237.17.39 0 .153-.057.28-.17.38-.113.1-.25.15-.41.15a.562.562 0 01-.4-.15.515.515 0 01-.15-.38zM61.042 11h.78v-.99l.8-.23V11h1.36v.7h-1.36v2.77c0 .347.043.593.13.74.086.14.233.21.44.21.173 0 .32-.017.44-.05.12-.04.253-.09.4-.15l.18.61a3.07 3.07 0 01-.59.21 2.84 2.84 0 01-.69.08c-.407 0-.694-.113-.86-.34-.167-.233-.25-.62-.25-1.16V11.7h-.78V11zm6.434 2.5c0-.847.187-1.493.56-1.94.38-.453.924-.68 1.63-.68.374 0 .697.063.97.19.28.12.51.297.69.53.18.227.314.503.4.83.087.32.13.677.13 1.07 0 .847-.19 1.497-.57 1.95-.373.447-.913.67-1.62.67-.373 0-.7-.06-.98-.18a1.844 1.844 0 01-.68-.53 2.346 2.346 0 01-.4-.83 4.21 4.21 0 01-.13-1.08zm.83 0c0 .253.024.497.07.73.054.233.134.437.24.61.107.173.247.313.42.42.174.107.384.16.63.16.907.007 1.36-.633 1.36-1.92 0-.26-.026-.507-.08-.74a1.842 1.842 0 00-.23-.61 1.177 1.177 0 00-.42-.41 1.18 1.18 0 00-.63-.16c-.906-.007-1.36.633-1.36 1.92zm8.022 2.5v-2.85c0-.52-.077-.91-.23-1.17-.147-.267-.42-.4-.82-.4-.354 0-.647.097-.88.29a1.501 1.501 0 00-.48.71V16h-.8v-5h.56l.15.61h.04c.16-.213.373-.387.64-.52a2.1 2.1 0 01.97-.21c.273 0 .513.033.72.1.206.06.376.17.51.33.14.16.243.377.31.65.073.267.11.607.11 1.02V16h-.8zM46.67 28.83h-3.01L42.918 31H41l3.528-9.87h1.414L49.47 31h-2.016l-.784-2.17zm-2.52-1.54h2.1l-.728-2.184-.294-1.54h-.07l-.294 1.554-.714 2.17zM50.275 24h1.33l.21.84h.056c.242-.355.527-.616.854-.784.336-.168.742-.252 1.218-.252.877 0 1.535.28 1.974.84.438.55.658 1.442.658 2.674 0 .597-.07 1.139-.21 1.624-.14.476-.35.882-.63 1.218a2.65 2.65 0 01-1.008.77c-.392.177-.845.266-1.358.266-.29 0-.528-.023-.714-.07a2.227 2.227 0 01-.56-.196v2.87h-1.82V24zm3.122 1.344c-.355 0-.635.089-.84.266-.196.177-.35.443-.462.798v2.912c.13.103.27.187.42.252.158.056.364.084.616.084.522 0 .914-.182 1.176-.546.26-.373.392-.985.392-1.834 0-.616-.103-1.092-.308-1.428-.206-.336-.537-.504-.994-.504zM57.835 24h1.33l.21.84h.056c.243-.355.527-.616.854-.784.336-.168.742-.252 1.218-.252.877 0 1.535.28 1.974.84.439.55.658 1.442.658 2.674 0 .597-.07 1.139-.21 1.624-.14.476-.35.882-.63 1.218a2.65 2.65 0 01-1.008.77c-.392.177-.845.266-1.358.266-.29 0-.527-.023-.714-.07a2.229 2.229 0 01-.56-.196v2.87h-1.82V24zm3.122 1.344c-.355 0-.635.089-.84.266-.196.177-.35.443-.462.798v2.912c.13.103.27.187.42.252.159.056.364.084.616.084.523 0 .915-.182 1.176-.546.261-.373.392-.985.392-1.834 0-.616-.103-1.092-.308-1.428-.205-.336-.537-.504-.994-.504zm12.25 3.024a.903.903 0 00-.336-.728 3.286 3.286 0 00-.826-.504 17.529 17.529 0 00-1.078-.476 6.384 6.384 0 01-1.078-.602 3.297 3.297 0 01-.826-.896c-.215-.355-.322-.807-.322-1.358 0-.476.079-.887.238-1.232a2.34 2.34 0 01.672-.882 2.99 2.99 0 011.05-.518 4.994 4.994 0 011.344-.168c.569 0 1.106.051 1.61.154.504.093.919.233 1.246.42l-.602 1.61c-.206-.13-.514-.247-.924-.35a5.04 5.04 0 00-1.33-.168c-.448 0-.794.089-1.036.266a.85.85 0 00-.35.714c0 .28.107.513.322.7.224.187.499.36.826.518.336.159.695.322 1.078.49.392.168.751.373 1.078.616.336.233.611.527.826.882.224.345.336.78.336 1.302 0 .523-.089.975-.266 1.358a2.48 2.48 0 01-.728.938 3.005 3.005 0 01-1.134.56 5.456 5.456 0 01-1.456.182c-.7 0-1.316-.065-1.848-.196-.532-.13-.924-.261-1.176-.392l.616-1.638c.102.056.233.117.392.182a6.408 6.408 0 001.204.322c.233.037.471.056.714.056.569 0 1.003-.093 1.302-.28.308-.196.462-.49.462-.882zM75.632 24h.966v-1.316l1.82-.518V24h1.708v1.54h-1.708v2.688c0 .485.047.835.14 1.05.103.205.29.308.56.308.187 0 .346-.019.477-.056.14-.037.293-.093.462-.168l.322 1.4a4.623 4.623 0 01-.883.308 4.198 4.198 0 01-1.021.126c-.644 0-1.12-.163-1.428-.49-.3-.336-.448-.882-.448-1.638V25.54h-.967V24zm5.205 3.5c0-1.185.29-2.095.868-2.73.579-.644 1.39-.966 2.436-.966.56 0 1.045.089 1.456.266.41.177.751.43 1.022.756.27.317.471.705.602 1.162.14.457.21.961.21 1.512 0 1.185-.29 2.1-.868 2.744-.57.635-1.377.952-2.422.952-.56 0-1.045-.089-1.456-.266a2.885 2.885 0 01-1.036-.742 3.36 3.36 0 01-.616-1.176 5.49 5.49 0 01-.196-1.512zm1.876 0c0 .308.028.593.084.854.056.261.14.49.252.686.112.196.257.35.434.462.187.103.406.154.658.154.476 0 .83-.173 1.064-.518.233-.345.35-.891.35-1.638 0-.644-.107-1.162-.322-1.554-.215-.401-.579-.602-1.092-.602-.448 0-.798.168-1.05.504-.252.336-.378.887-.378 1.652zm9.844-1.792a2.37 2.37 0 00-.785-.154 1.29 1.29 0 00-.826.266 1.224 1.224 0 00-.433.658V31h-1.82v-7h1.413l.21.924h.056a1.91 1.91 0 01.644-.798c.271-.187.588-.28.953-.28.242 0 .518.051.826.154l-.239 1.708zm6.644 4.69c-.28.224-.663.415-1.148.574a5.05 5.05 0 01-1.526.224c-1.13 0-1.956-.327-2.478-.98-.523-.663-.784-1.568-.784-2.716 0-1.232.294-2.156.882-2.772.588-.616 1.414-.924 2.478-.924.354 0 .7.047 1.036.14.336.093.634.247.896.462.261.215.471.504.63.868.158.364.238.817.238 1.358 0 .196-.014.406-.042.63a6.6 6.6 0 01-.098.7h-4.2c.028.588.177 1.031.448 1.33.28.299.728.448 1.344.448.382 0 .723-.056 1.022-.168.308-.121.541-.243.7-.364l.602 1.19zm-2.604-5.138c-.476 0-.83.145-1.064.434-.224.28-.36.658-.406 1.134h2.604c.037-.504-.042-.891-.238-1.162-.187-.27-.486-.406-.896-.406z" fill="#F7F7F7"/><path stroke="#F7F7F7" d="M.5.5h119v39H.5z"/><path d="M22.137 10.108c.757-.755 1.316-1.581 1.676-2.48.349-.899.523-1.714.523-2.445 0-.048-.003-.108-.009-.18a2.041 2.041 0 01-.009-.18 1.74 1.74 0 01-.045-.198 1.733 1.733 0 00-.045-.197c-2.116.491-3.618 1.378-4.507 2.66-.902 1.295-1.37 2.835-1.407 4.62.805-.072 1.43-.173 1.876-.305.649-.216 1.297-.647 1.947-1.295z" fill="#F7F7F7"/><path d="M28.266 24.004c-.83-1.186-1.244-2.523-1.244-4.01a6.38 6.38 0 011.172-3.72c.42-.612 1.106-1.319 2.055-2.122-.625-.767-1.25-1.366-1.875-1.798-1.13-.778-2.41-1.168-3.84-1.168-.853 0-1.893.204-3.12.611-1.177.408-2.037.611-2.577.611-.409 0-1.238-.18-2.488-.54-1.262-.359-2.326-.539-3.191-.539-2.068 0-3.775.863-5.12 2.59C6.678 15.669 6 17.909 6 20.642c0 2.9.883 5.914 2.65 9.042 1.791 3.104 3.6 4.656 5.427 4.656.613 0 1.406-.204 2.38-.61.973-.396 1.827-.594 2.56-.594.781 0 1.688.192 2.722.575 1.094.383 1.935.575 2.524.575 1.538 0 3.083-1.174 4.634-3.523 1.01-1.498 1.749-2.997 2.218-4.494-1.07-.324-2.02-1.079-2.849-2.265z" fill="#F7F7F7"/></svg>