<svg width="120" height="40" fill="none" xmlns="http://www.w3.org/2000/svg"><path d="M44.21 12.51h2.35v3.08a1.97 1.97 0 01-.39.22 3.12 3.12 0 01-.48.17 3.21 3.21 0 01-.53.1 3.61 3.61 0 01-.53.04c-.447 0-.857-.07-1.23-.21a2.619 2.619 0 01-.97-.66 3.152 3.152 0 01-.64-1.13c-.153-.46-.23-1-.23-1.62 0-.647.093-1.2.28-1.66.187-.46.43-.833.73-1.12.3-.293.637-.507 1.01-.64s.747-.2 1.12-.2c.4 0 .73.023.99.07.26.04.48.097.66.17l-.21.73c-.32-.153-.777-.23-1.37-.23-.28 0-.56.05-.84.15-.273.093-.52.253-.74.48-.22.227-.4.523-.54.89s-.21.82-.21 1.36c0 .493.057.92.17 1.28.113.36.27.66.47.9.207.233.453.41.74.53.287.113.6.17.94.17.427 0 .79-.083 1.09-.25v-1.95l-1.64-.2v-.47zm7.333 3.09c-.2.16-.453.287-.76.38-.3.093-.62.14-.96.14a2.5 2.5 0 01-.99-.18 1.825 1.825 0 01-.69-.53 2.346 2.346 0 01-.4-.83 4.12 4.12 0 01-.13-1.08c0-.853.19-1.503.57-1.95.38-.447.923-.67 1.63-.67.227 0 .453.027.68.08.227.047.43.14.61.28s.327.34.44.6c.113.253.17.59.17 1.01 0 .22-.02.463-.06.73h-3.21c0 .293.03.553.09.78.06.227.153.42.28.58.127.153.29.273.49.36.207.08.457.12.75.12.227 0 .453-.04.68-.12.227-.08.397-.173.51-.28l.3.58zm-1.72-4.02c-.393 0-.71.103-.95.31-.233.207-.373.56-.42 1.06h2.48c0-.507-.097-.86-.29-1.06-.193-.207-.467-.31-.82-.31zm2.488-.58h.78v-.99l.8-.23V11h1.36v.7h-1.36v2.77c0 .347.044.593.13.74.087.14.233.21.44.21.174 0 .32-.017.44-.05.12-.04.253-.09.4-.15l.18.61a3.04 3.04 0 01-.59.21c-.213.053-.443.08-.69.08-.407 0-.693-.113-.86-.34-.166-.233-.25-.62-.25-1.16V11.7h-.78V11zm6.885 0h.8v5h-.8v-5zm-.17-1.52a.55.55 0 01.55-.56.56.56 0 01.41.17c.113.107.17.237.17.39 0 .153-.057.28-.17.38-.113.1-.25.15-.41.15a.562.562 0 01-.4-.15.515.515 0 01-.15-.38zM61.042 11h.78v-.99l.8-.23V11h1.36v.7h-1.36v2.77c0 .347.043.593.13.74.086.14.233.21.44.21.173 0 .32-.017.44-.05.12-.04.253-.09.4-.15l.18.61a3.07 3.07 0 01-.59.21 2.84 2.84 0 01-.69.08c-.407 0-.694-.113-.86-.34-.167-.233-.25-.62-.25-1.16V11.7h-.78V11zm6.434 2.5c0-.847.187-1.493.56-1.94.38-.453.924-.68 1.63-.68.374 0 .697.063.97.19.28.12.51.297.69.53.18.227.314.503.4.83.087.32.13.677.13 1.07 0 .847-.19 1.497-.57 1.95-.373.447-.913.67-1.62.67-.373 0-.7-.06-.98-.18a1.844 1.844 0 01-.68-.53 2.346 2.346 0 01-.4-.83 4.21 4.21 0 01-.13-1.08zm.83 0c0 .253.024.497.07.73.054.233.134.437.24.61.107.173.247.313.42.42.174.107.384.16.63.16.907.007 1.36-.633 1.36-1.92 0-.26-.026-.507-.08-.74a1.842 1.842 0 00-.23-.61 1.177 1.177 0 00-.42-.41 1.18 1.18 0 00-.63-.16c-.906-.007-1.36.633-1.36 1.92zm8.022 2.5v-2.85c0-.52-.077-.91-.23-1.17-.147-.267-.42-.4-.82-.4-.354 0-.647.097-.88.29a1.501 1.501 0 00-.48.71V16h-.8v-5h.56l.15.61h.04c.16-.213.373-.387.64-.52a2.1 2.1 0 01.97-.21c.273 0 .513.033.72.1.206.06.376.17.51.33.14.16.243.377.31.65.073.267.11.607.11 1.02V16h-.8zm-31.03 8.89h3.654v4.368a3.678 3.678 0 01-1.414.714 6.035 6.035 0 01-1.61.224 5.102 5.102 0 01-1.75-.294 3.623 3.623 0 01-1.386-.91c-.392-.42-.7-.952-.924-1.596-.224-.644-.336-1.41-.336-2.296 0-.924.13-1.708.392-2.352.27-.653.62-1.18 1.05-1.582a3.92 3.92 0 011.47-.882 5.034 5.034 0 011.652-.28 7.57 7.57 0 012.492.392l-.392 1.61a3.696 3.696 0 00-.784-.21 5.991 5.991 0 00-1.106-.084c-.401 0-.77.06-1.106.182a2.16 2.16 0 00-.882.602c-.243.27-.434.62-.574 1.05-.13.43-.196.952-.196 1.568 0 .588.065 1.097.196 1.526.13.42.313.77.546 1.05.233.27.504.471.812.602.317.13.653.196 1.008.196.243 0 .48-.028.714-.084.233-.065.43-.159.588-.28v-1.848l-2.114-.224V24.89zm4.695 1.61c0-1.185.29-2.095.868-2.73.579-.644 1.39-.966 2.436-.966.56 0 1.046.089 1.456.266.41.177.752.43 1.022.756.27.317.472.705.602 1.162.14.457.21.961.21 1.512 0 1.185-.29 2.1-.868 2.744-.57.635-1.376.952-2.422.952-.56 0-1.045-.089-1.456-.266a2.885 2.885 0 01-1.036-.742 3.36 3.36 0 01-.616-1.176 5.49 5.49 0 01-.196-1.512zm1.876 0c0 .308.028.593.084.854.056.261.14.49.252.686.112.196.257.35.434.462.187.103.406.154.658.154.476 0 .83-.173 1.064-.518.234-.345.35-.891.35-1.638 0-.644-.107-1.162-.322-1.554-.214-.401-.578-.602-1.092-.602-.448 0-.798.168-1.05.504-.252.336-.378.887-.378 1.652zm5.644 0c0-1.185.29-2.095.868-2.73.578-.644 1.39-.966 2.436-.966.56 0 1.045.089 1.456.266.41.177.751.43 1.022.756.27.317.471.705.602 1.162.14.457.21.961.21 1.512 0 1.185-.29 2.1-.868 2.744-.57.635-1.377.952-2.422.952-.56 0-1.046-.089-1.456-.266a2.885 2.885 0 01-1.036-.742 3.36 3.36 0 01-.616-1.176 5.49 5.49 0 01-.196-1.512zm1.876 0c0 .308.028.593.084.854.056.261.14.49.252.686.112.196.256.35.434.462.186.103.406.154.658.154.476 0 .83-.173 1.064-.518.233-.345.35-.891.35-1.638 0-.644-.108-1.162-.322-1.554-.215-.401-.579-.602-1.092-.602-.448 0-.798.168-1.05.504-.252.336-.378.887-.378 1.652zM71.29 30c0 1.017-.275 1.764-.826 2.24-.55.485-1.32.728-2.31.728-.672 0-1.204-.047-1.596-.14-.382-.093-.672-.191-.868-.294l.378-1.442c.215.084.462.168.742.252.29.084.644.126 1.064.126.635 0 1.064-.14 1.288-.42.234-.27.35-.653.35-1.148v-.448h-.056c-.326.439-.905.658-1.736.658-.905 0-1.582-.28-2.03-.84-.438-.56-.658-1.437-.658-2.632 0-1.25.299-2.198.896-2.842.598-.644 1.466-.966 2.604-.966.598 0 1.13.042 1.596.126.476.084.864.182 1.162.294V30zm-3.08-1.344c.355 0 .626-.08.812-.238.196-.159.346-.397.448-.714v-3.15c-.289-.121-.648-.182-1.078-.182-.466 0-.83.177-1.092.532-.261.345-.392.9-.392 1.666 0 .681.112 1.2.336 1.554.224.355.546.532.966.532zm6.54-1.008c0 .327.042.565.126.714.084.15.22.224.406.224.112 0 .22-.01.322-.028a1.95 1.95 0 00.406-.126l.196 1.428a3.45 3.45 0 01-.686.224 4.025 4.025 0 01-.952.112c-.532 0-.938-.121-1.218-.364-.28-.252-.42-.663-.42-1.232v-8.4h1.82v7.448zm7.84 1.75c-.28.224-.663.415-1.149.574-.476.15-.984.224-1.526.224-1.129 0-1.955-.327-2.478-.98-.522-.663-.784-1.568-.784-2.716 0-1.232.294-2.156.882-2.772.588-.616 1.414-.924 2.478-.924.355 0 .7.047 1.036.14.336.093.635.247.896.462.262.215.472.504.63.868.16.364.238.817.238 1.358 0 .196-.014.406-.042.63a6.626 6.626 0 01-.098.7h-4.2c.028.588.178 1.031.448 1.33.28.299.728.448 1.344.448.383 0 .724-.056 1.022-.168.308-.121.542-.243.7-.364l.602 1.19zm-2.605-5.138c-.476 0-.83.145-1.064.434-.224.28-.359.658-.406 1.134h2.604c.038-.504-.042-.891-.238-1.162-.186-.27-.485-.406-.896-.406zm7.697-3.962c.392-.075.821-.13 1.288-.168.476-.047.947-.07 1.414-.07.485 0 .97.042 1.456.126.495.075.938.233 1.33.476.392.233.71.565.952.994.252.42.378.97.378 1.652 0 .616-.108 1.139-.322 1.568-.215.42-.5.765-.854 1.036a3.44 3.44 0 01-1.218.588 5.334 5.334 0 01-1.4.182h-.546l-.336-.028a2.364 2.364 0 01-.224-.028V30h-1.918v-9.702zm2.856 1.414c-.187 0-.364.01-.532.028-.168.01-.303.023-.406.042v3.178c.037.01.093.019.168.028.075.01.154.019.238.028h.42c.252 0 .5-.023.742-.07.252-.047.476-.13.672-.252.196-.13.35-.308.462-.532.121-.224.182-.518.182-.882 0-.308-.056-.56-.168-.756a1.335 1.335 0 00-.448-.49 1.652 1.652 0 00-.616-.252 3.629 3.629 0 00-.714-.07zm6.99 5.936c0 .327.041.565.125.714.084.15.22.224.406.224.112 0 .22-.01.323-.028a1.95 1.95 0 00.405-.126l.197 1.428c-.15.075-.378.15-.686.224a4.024 4.024 0 01-.953.112c-.531 0-.938-.121-1.218-.364-.28-.252-.42-.663-.42-1.232v-8.4h1.82v7.448zm2.197-4.242a5.75 5.75 0 011.33-.392 8.189 8.189 0 011.61-.154c.485 0 .891.06 1.218.182.326.112.583.275.77.49.196.215.331.471.406.77.084.299.126.635.126 1.008 0 .41-.014.826-.042 1.246-.028.41-.047.817-.056 1.218 0 .401.014.793.042 1.176.028.373.098.728.21 1.064h-1.484l-.294-.966h-.07c-.187.29-.448.541-.784.756-.327.205-.752.308-1.274.308-.327 0-.621-.047-.882-.14a2.043 2.043 0 01-.672-.42 2.009 2.009 0 01-.434-.644 2.206 2.206 0 01-.154-.84c0-.43.093-.789.28-1.078a2.06 2.06 0 01.826-.714 3.935 3.935 0 011.288-.378 8.785 8.785 0 011.68-.07c.065-.523.028-.896-.112-1.12-.14-.233-.453-.35-.938-.35a6.5 6.5 0 00-1.162.112 4.213 4.213 0 00-.994.294l-.434-1.358zm2.31 5.208c.364 0 .653-.08.868-.238.214-.168.373-.345.476-.532v-.91a5.082 5.082 0 00-.84-.014c-.262.019-.495.06-.7.126a1.182 1.182 0 00-.49.28.623.623 0 00-.182.462c0 .261.074.467.224.616.158.14.373.21.644.21zm7.225-1.68l.252 1.092h.084l.182-1.106 1.064-3.92h1.876l-2.128 6.314c-.177.523-.35.999-.518 1.428a6.145 6.145 0 01-.532 1.134c-.196.317-.415.56-.658.728a1.347 1.347 0 01-.84.266c-.485 0-.873-.08-1.162-.238l.336-1.456c.14.056.28.084.42.084.215 0 .42-.093.616-.28.205-.177.359-.504.462-.98l-2.926-7h2.184l1.288 3.934z" fill="#F7F7F7"/><path d="M5.528 4.453C5.218 4.533 5 4.8 5 5.26v28.404c0 .334.147.557.374.64l15.101-15.009L5.528 4.453z" fill="#4DB6AC"/><path d="M24.632 15.164l-6.216-3.588L6.338 4.604c-.29-.167-.576-.211-.81-.15l14.948 14.842 4.156-4.132z" fill="#DCE775"/><path d="M6.06 34.196l18.606-10.74-4.191-4.161-15.101 15.01c.186.067.424.042.686-.11z" fill="#D32F2F"/><path d="M30.739 18.688c-.596-.32-6.061-3.498-6.061-3.498l-.046-.026-4.157 4.132 4.19 4.16c3.317-1.914 5.808-3.35 6.031-3.48.706-.407.638-.967.043-1.288z" fill="#FBC02D"/><path stroke="#F7F7F7" d="M.5.5h119v39H.5z"/></svg>