<svg width="40" height="40" fill="none" xmlns="http://www.w3.org/2000/svg"><rect width="40" height="40" rx="1" fill="#F7F7F7"/><path fill="#C4C4C4" d="M7 7h26v26H7z"/><circle cx="20" cy="20" r="13" fill="#F7F7F7"/><mask id="a" fill="#fff"><path d="M35 6a1 1 0 00-1-1H20.091c-8.284 0-15 6.716-15 15 0 8.284 6.716 15 15 15H34a1 1 0 001-1V6z"/></mask><path d="M35 6a1 1 0 00-1-1H20.091c-8.284 0-15 6.716-15 15v0c0 8.284 6.716 15 15 15H34a1 1 0 001-1V6z" stroke="#1C1C1C" stroke-width="4" mask="url(#a)"/><mask id="b" fill="#fff"><path d="M5 6a1 1 0 011-1h13.909c8.284 0 15 6.716 15 15 0 8.284-6.716 15-15 15H6a1 1 0 01-1-1V6z"/></mask><path d="M5 6a1 1 0 011-1h13.909c8.284 0 15 6.716 15 15v0c0 8.284-6.716 15-15 15H6a1 1 0 01-1-1V6z" stroke="#1C1C1C" stroke-width="4" mask="url(#b)"/><path d="M19.385 10.47c.04-.217.353-.217.394 0l1.016 5.498a.2.2 0 00.334.109l4.043-3.849c.161-.153.414.03.319.231l-2.4 5.049a.2.2 0 00.206.284l5.53-.73c.22-.029.316.268.121.374l-4.902 2.67a.2.2 0 000 .351l4.902 2.67c.195.107.098.404-.122.374l-5.529-.73a.2.2 0 00-.207.285l2.401 5.049c.095.2-.158.383-.319.23l-4.043-3.848a.2.2 0 00-.334.108l-1.016 5.498c-.04.218-.353.218-.394 0l-1.016-5.498a.2.2 0 00-.334-.108l-4.043 3.848c-.161.153-.414-.03-.319-.23l2.4-5.05a.2.2 0 00-.206-.284l-5.53.73c-.219.03-.316-.267-.121-.373l4.902-2.67a.2.2 0 000-.352l-4.902-2.67c-.195-.106-.098-.403.122-.374l5.529.73a.2.2 0 00.207-.284l-2.4-5.049c-.096-.2.157-.384.318-.23l4.043 3.848a.2.2 0 00.334-.109l1.016-5.497z" fill="#FF3004"/><path d="M19.392 9.994a.2.2 0 01.38 0l2.2 6.789a.2.2 0 00.19.138h7.117a.2.2 0 01.118.362l-5.76 4.197a.2.2 0 00-.072.223l2.2 6.79a.2.2 0 01-.308.224L19.7 24.522a.2.2 0 00-.236 0l-5.757 4.195a.2.2 0 01-.308-.223l2.2-6.79a.2.2 0 00-.073-.224l-5.759-4.197a.2.2 0 01.118-.362h7.118a.2.2 0 00.19-.138l2.199-6.789z" fill="#1C1C1C"/></svg>