<svg width="360" height="50" fill="none" xmlns="http://www.w3.org/2000/svg"><rect width="360" height="50" rx="1" fill="#F7F7F7"/><path d="M7 7h18c9.941 0 18 8.059 18 18s-8.059 18-18 18H7V7z" fill="#C4C4C4"/><circle cx="25" cy="25" r="18" fill="#F7F7F7"/><mask id="a" fill="#fff"><path d="M5 6a1 1 0 011-1h19c11.046 0 20 8.954 20 20s-8.954 20-20 20H6a1 1 0 01-1-1V6z"/></mask><path d="M5 6a1 1 0 011-1h19c11.046 0 20 8.954 20 20s-8.954 20-20 20H6a1 1 0 01-1-1V6z" stroke="#1C1C1C" stroke-width="4" mask="url(#a)"/><path d="M24.246 11.94c.04-.219.353-.219.394 0l1.442 7.804a.2.2 0 00.335.109l5.74-5.464c.161-.153.415.03.32.23l-3.409 7.168a.2.2 0 00.207.284l7.85-1.036c.22-.029.316.268.121.374l-6.959 3.79a.2.2 0 000 .352l6.96 3.79c.194.106.097.403-.123.374l-7.849-1.036a.2.2 0 00-.207.284l3.408 7.167c.096.2-.158.384-.318.231l-5.741-5.464a.2.2 0 00-.335.109L24.64 38.81c-.04.218-.353.218-.394 0l-1.442-7.805a.2.2 0 00-.335-.109l-5.74 5.464c-.161.153-.414-.03-.32-.23l3.409-7.168a.2.2 0 00-.207-.284l-7.85 1.036c-.219.029-.316-.268-.121-.374l6.959-3.79a.2.2 0 000-.352l-6.959-3.79c-.195-.106-.098-.403.122-.374l7.85 1.036a.2.2 0 00.206-.284L16.41 14.62c-.095-.2.158-.384.318-.231l5.741 5.464a.2.2 0 00.335-.109l1.442-7.805z" fill="#FF3004"/><path d="M24.253 11.462a.2.2 0 01.38 0l3.01 9.294a.2.2 0 00.191.138h9.743a.2.2 0 01.118.362L29.812 27a.2.2 0 00-.073.223l3.011 9.296a.2.2 0 01-.308.223l-7.881-5.744a.2.2 0 00-.236 0l-7.88 5.744a.2.2 0 01-.309-.223l3.011-9.296a.2.2 0 00-.072-.223l-7.884-5.745a.2.2 0 01.118-.362h9.743a.2.2 0 00.19-.138l3.01-9.294z" fill="#1C1C1C"/><circle cx="25" cy="25" r="19" stroke="#1C1C1C" stroke-width="2"/><path d="M24.246 11.94c.04-.219.353-.219.394 0l1.442 7.804a.2.2 0 00.335.109l5.74-5.464c.161-.153.415.03.32.23l-3.409 7.168a.2.2 0 00.207.284l7.85-1.036c.22-.029.316.268.121.374l-6.959 3.79a.2.2 0 000 .352l6.96 3.79c.194.106.097.403-.123.374l-7.849-1.036a.2.2 0 00-.207.284l3.408 7.167c.096.2-.158.384-.318.231l-5.741-5.464a.2.2 0 00-.335.109L24.64 38.81c-.04.218-.353.218-.394 0l-1.442-7.805a.2.2 0 00-.335-.109l-5.74 5.464c-.161.153-.414-.03-.32-.23l3.409-7.168a.2.2 0 00-.207-.284l-7.85 1.036c-.219.029-.316-.268-.121-.374l6.959-3.79a.2.2 0 000-.352l-6.959-3.79c-.195-.106-.098-.403.122-.374l7.85 1.036a.2.2 0 00.206-.284L16.41 14.62c-.095-.2.158-.384.318-.231l5.741 5.464a.2.2 0 00.335-.109l1.442-7.805z" fill="#FF3004"/><path d="M24.253 11.462a.2.2 0 01.38 0l3.01 9.294a.2.2 0 00.191.138h9.743a.2.2 0 01.118.362L29.812 27a.2.2 0 00-.073.223l3.011 9.296a.2.2 0 01-.308.223l-7.881-5.744a.2.2 0 00-.236 0l-7.88 5.744a.2.2 0 01-.309-.223l3.011-9.296a.2.2 0 00-.072-.223l-7.884-5.745a.2.2 0 01.118-.362h9.743a.2.2 0 00.19-.138l3.01-9.294z" fill="#1C1C1C"/><path d="M317 25c0-9.941 8.059-18 18-18h18v36h-18c-9.941 0-18-8.059-18-18z" fill="#C4C4C4"/><circle cx="335" cy="25" r="19" fill="#F7F7F7" stroke="#1C1C1C" stroke-width="2"/><mask id="b" fill="#fff"><path d="M355 6a1 1 0 00-1-1h-19c-11.046 0-20 8.954-20 20s8.954 20 20 20h19a1 1 0 001-1V6z"/></mask><path d="M355 6a1 1 0 00-1-1h-19c-11.046 0-20 8.954-20 20s8.954 20 20 20h19a1 1 0 001-1V6z" stroke="#1C1C1C" stroke-width="4" mask="url(#b)"/><path d="M334.246 11.94c.041-.219.353-.219.394 0l1.442 7.804a.2.2 0 00.335.109l5.741-5.464c.16-.153.414.03.318.23l-3.408 7.168a.2.2 0 00.207.284l7.849-1.036c.22-.029.317.268.122.374l-6.959 3.79a.2.2 0 000 .352l6.959 3.79c.195.106.098.403-.122.374l-7.849-1.036a.2.2 0 00-.207.284l3.408 7.167c.096.2-.158.384-.318.231l-5.741-5.464a.2.2 0 00-.335.109l-1.442 7.805c-.041.218-.353.218-.394 0l-1.442-7.805a.2.2 0 00-.335-.109l-5.741 5.464c-.16.153-.413-.03-.318-.23l3.408-7.168a.2.2 0 00-.207-.284l-7.849 1.036c-.22.029-.317-.268-.122-.374l6.959-3.79a.2.2 0 000-.352l-6.959-3.79c-.195-.106-.098-.403.122-.374l7.849 1.036a.2.2 0 00.207-.284l-3.408-7.167c-.095-.2.158-.384.318-.231l5.741 5.464a.2.2 0 00.335-.109l1.442-7.805z" fill="#FF3004"/><path d="M334.253 11.462c.06-.184.321-.184.38 0l3.011 9.294a.2.2 0 00.19.138h9.743a.2.2 0 01.118.362L339.812 27a.2.2 0 00-.073.223l3.011 9.296a.2.2 0 01-.308.223l-7.881-5.744a.2.2 0 00-.236 0l-7.881 5.744a.2.2 0 01-.308-.223l3.011-9.296a.2.2 0 00-.072-.223l-7.884-5.745a.2.2 0 01.118-.362h9.743a.199.199 0 00.19-.138l3.011-9.294zM77.976 34H68.04V17.2h1.992v15.024h7.944V34zm2.573-8.4c0-2.8.592-4.944 1.776-6.432 1.184-1.504 2.872-2.256 5.064-2.256 1.184 0 2.208.208 3.072.624a5.619 5.619 0 012.136 1.776c.576.752 1 1.664 1.272 2.736.272 1.056.408 2.24.408 3.552 0 2.8-.6 4.952-1.8 6.456-1.184 1.488-2.88 2.232-5.088 2.232-1.168 0-2.184-.208-3.048-.624-.848-.416-1.56-1-2.136-1.752-.56-.768-.976-1.68-1.248-2.736-.272-1.072-.408-2.264-.408-3.576zm2.112 0c0 .928.088 1.808.264 2.64.192.832.48 1.568.864 2.208a4.726 4.726 0 001.464 1.512c.608.368 1.32.552 2.136.552 1.488 0 2.656-.56 3.504-1.68.848-1.136 1.272-2.88 1.272-5.232 0-.912-.096-1.784-.288-2.616-.176-.848-.464-1.584-.864-2.208a4.346 4.346 0 00-1.488-1.512c-.592-.384-1.304-.576-2.136-.576-1.472 0-2.632.568-3.48 1.704-.832 1.12-1.248 2.856-1.248 5.208zm24.974 4.128c0-.672-.2-1.216-.6-1.632-.4-.432-.904-.808-1.512-1.128a16.901 16.901 0 00-1.944-.936A11.474 11.474 0 01101.611 25a5.812 5.812 0 01-1.488-1.512c-.4-.608-.6-1.376-.6-2.304 0-1.312.456-2.352 1.368-3.12.912-.768 2.208-1.152 3.888-1.152.976 0 1.864.072 2.664.216.8.144 1.424.328 1.872.552l-.6 1.752c-.368-.176-.912-.344-1.632-.504-.704-.16-1.504-.24-2.4-.24-1.056 0-1.848.24-2.376.72-.528.464-.792 1.016-.792 1.656 0 .624.2 1.144.6 1.56.4.416.896.792 1.488 1.128.608.32 1.264.64 1.968.96.704.32 1.352.696 1.944 1.128.608.416 1.112.92 1.512 1.512.4.592.6 1.328.6 2.208 0 .72-.128 1.368-.384 1.944a4.09 4.09 0 01-1.128 1.488c-.496.416-1.096.736-1.8.96-.704.224-1.504.336-2.4.336-1.2 0-2.192-.096-2.976-.288-.784-.176-1.392-.376-1.824-.6l.672-1.8c.368.208.912.416 1.632.624.72.192 1.528.288 2.424.288.528 0 1.024-.048 1.488-.144.464-.112.864-.28 1.2-.504.336-.24.6-.536.792-.888.208-.352.312-.768.312-1.248zm18.414-10.752h-5.232V34h-1.992V18.976h-5.232V17.2h12.456v1.776zm23.454 14.328c-.48.368-1.088.624-1.824.768a12.24 12.24 0 01-2.352.216 7.872 7.872 0 01-2.832-.504 6.328 6.328 0 01-2.304-1.584c-.656-.704-1.176-1.6-1.56-2.688-.384-1.104-.576-2.408-.576-3.912 0-1.568.208-2.896.624-3.984.432-1.104.992-2 1.68-2.688.704-.704 1.488-1.216 2.352-1.536a7.547 7.547 0 012.64-.48c.96 0 1.744.056 2.352.168a7.097 7.097 0 011.56.408l-.48 1.752c-.768-.368-1.864-.552-3.288-.552-.656 0-1.304.12-1.944.36-.64.24-1.216.632-1.728 1.176-.496.544-.896 1.256-1.2 2.136-.304.88-.456 1.96-.456 3.24 0 1.152.144 2.16.432 3.024.288.864.68 1.584 1.176 2.16a4.988 4.988 0 001.776 1.296 5.722 5.722 0 002.232.432c.72 0 1.344-.072 1.872-.216.544-.144 1-.328 1.368-.552l.48 1.56zm4.03-7.704c0-2.8.592-4.944 1.776-6.432 1.184-1.504 2.872-2.256 5.064-2.256 1.184 0 2.208.208 3.072.624a5.619 5.619 0 012.136 1.776c.576.752 1 1.664 1.272 2.736.272 1.056.408 2.24.408 3.552 0 2.8-.6 4.952-1.8 6.456-1.184 1.488-2.88 2.232-5.088 2.232-1.168 0-2.184-.208-3.048-.624-.848-.416-1.56-1-2.136-1.752-.56-.768-.976-1.68-1.248-2.736-.272-1.072-.408-2.264-.408-3.576zm2.112 0c0 .928.088 1.808.264 2.64.192.832.48 1.568.864 2.208a4.726 4.726 0 001.464 1.512c.608.368 1.32.552 2.136.552 1.488 0 2.656-.56 3.504-1.68.848-1.136 1.272-2.88 1.272-5.232 0-.912-.096-1.784-.288-2.616-.176-.848-.464-1.584-.864-2.208a4.346 4.346 0 00-1.488-1.512c-.592-.384-1.304-.576-2.136-.576-1.472 0-2.632.568-3.48 1.704-.832 1.12-1.248 2.856-1.248 5.208zm20.414-2.592l-1.296-2.424h-.096l.24 2.424V34h-1.872V16.936h1.056l8.04 11.208 1.248 2.304h.12l-.264-2.304V17.2h1.872v17.064h-1.056l-7.992-11.256zm18.549 0l-1.296-2.424h-.096l.24 2.424V34h-1.872V16.936h1.056l8.04 11.208 1.248 2.304h.12l-.264-2.304V17.2h1.872v17.064H202.6l-7.992-11.256zm15.524-5.808h9.144v1.776h-7.152v5.496h6.552v1.776h-6.552v5.976h7.272V34h-9.264V17.2zm26.019 16.104c-.48.368-1.088.624-1.824.768a12.24 12.24 0 01-2.352.216 7.872 7.872 0 01-2.832-.504 6.328 6.328 0 01-2.304-1.584c-.656-.704-1.176-1.6-1.56-2.688-.384-1.104-.576-2.408-.576-3.912 0-1.568.208-2.896.624-3.984.432-1.104.992-2 1.68-2.688.704-.704 1.488-1.216 2.352-1.536a7.547 7.547 0 012.64-.48c.96 0 1.744.056 2.352.168a7.097 7.097 0 011.56.408l-.48 1.752c-.768-.368-1.864-.552-3.288-.552-.656 0-1.304.12-1.944.36-.64.24-1.216.632-1.728 1.176-.496.544-.896 1.256-1.2 2.136-.304.88-.456 1.96-.456 3.24 0 1.152.144 2.16.432 3.024.288.864.68 1.584 1.176 2.16a4.988 4.988 0 001.776 1.296 5.722 5.722 0 002.232.432c.72 0 1.344-.072 1.872-.216.544-.144 1-.328 1.368-.552l.48 1.56zm15.528-14.328h-5.232V34h-1.992V18.976h-5.232V17.2h12.456v1.776zm5.32-1.776h1.992V34h-1.992V17.2zm8.232 8.4c0-2.8.592-4.944 1.776-6.432 1.184-1.504 2.872-2.256 5.064-2.256 1.184 0 2.208.208 3.072.624a5.619 5.619 0 012.136 1.776c.576.752 1 1.664 1.272 2.736.272 1.056.408 2.24.408 3.552 0 2.8-.6 4.952-1.8 6.456-1.184 1.488-2.88 2.232-5.088 2.232-1.168 0-2.184-.208-3.048-.624-.848-.416-1.56-1-2.136-1.752-.56-.768-.976-1.68-1.248-2.736-.272-1.072-.408-2.264-.408-3.576zm2.112 0c0 .928.088 1.808.264 2.64.192.832.48 1.568.864 2.208a4.726 4.726 0 001.464 1.512c.608.368 1.32.552 2.136.552 1.488 0 2.656-.56 3.504-1.68.848-1.136 1.272-2.88 1.272-5.232 0-.912-.096-1.784-.288-2.616-.176-.848-.464-1.584-.864-2.208a4.346 4.346 0 00-1.488-1.512c-.592-.384-1.304-.576-2.136-.576-1.472 0-2.632.568-3.48 1.704-.832 1.12-1.248 2.856-1.248 5.208zm20.415-2.592l-1.296-2.424h-.096l.24 2.424V34h-1.872V16.936h1.056l8.04 11.208 1.248 2.304h.12l-.264-2.304V17.2h1.872v17.064h-1.056l-7.992-11.256z" fill="#1C1C1C"/></svg>